<svg xmlns="http://www.w3.org/2000/svg" x="0px" y="0px" viewBox="6.38640022277832 6.35584020614624 35.227203369140625 35.28832244873047" enable-background="new 0 0 48 48">
<g>
	
		<path fill="#FFFFFF" stroke="#5D5D61FF" stroke-width="1" stroke-linecap="round" stroke-linejoin="round" stroke-miterlimit="10" d="   M22.8701,41.14416H10.77733c-2.1489,0-3.89093-1.74203-3.89093-3.89093V23.47855c0-2.1489,1.74203-3.89093,3.89093-3.89093H22.8701   c0.62403,0,1.12991,0.50587,1.12991,1.12991v19.29673C24.00001,40.63829,23.49413,41.14416,22.8701,41.14416z"/>
	
		<path fill="#FFFFFF" stroke="#5D5D61FF" stroke-width="1" stroke-linecap="round" stroke-linejoin="round" stroke-miterlimit="10" d="   M37.22267,41.14416H25.1299c-0.62403,0-1.12991-0.50587-1.12991-1.12991V20.71752c0-0.62403,0.50587-1.12991,1.12991-1.12991   h12.09277c2.1489,0,3.89093,1.74203,3.89093,3.89093v13.77468C41.1136,39.40213,39.37157,41.14416,37.22267,41.14416z"/>
</g>
<g>
	
		<path fill="#FFFFFF" stroke="#5A5656FF" stroke-width="1" stroke-linecap="round" stroke-linejoin="round" stroke-miterlimit="10" d="   M23.99998,37.80322H13.18795c-1.7311,0-3.13443-1.19684-3.13443-2.67322v-8.42905c0-1.47638,1.40333-2.67323,3.13443-2.67323   h7.6776c1.7311,0,3.13443,1.19684,3.13443,2.67323V37.80322z"/>
	
		<path fill="#FFFFFF" stroke="#5A5656FF" stroke-width="1" stroke-linecap="round" stroke-linejoin="round" stroke-miterlimit="10" d="   M24.00001,37.80322h10.81202c1.7311,0,3.13443-1.19684,3.13443-2.67322v-8.42905c0-1.47638-1.40334-2.67323-3.13443-2.67323   h-7.67759c-1.7311,0-3.13443,1.19684-3.13443,2.67323V37.80322z"/>
	
		<path fill="#FFFFFF" stroke="#5A5656FF" stroke-width="1" stroke-linecap="round" stroke-linejoin="round" stroke-miterlimit="10" d="   M23.99998,35.80508l-1.00442-1.02176c-0.84518-0.85977-1.99149-1.34278-3.18675-1.34278h-6.62086   c-1.7311,0-3.13443-1.42756-3.13443-3.18855V19.79641c0-1.76098,1.40333-3.18855,3.13443-3.18855h7.6776   c1.7311,0,3.13443,1.42756,3.13443,3.18855V35.80508z"/>
	
		<path fill="#FFFFFF" stroke="#5A5656FF" stroke-width="1" stroke-linecap="round" stroke-linejoin="round" stroke-miterlimit="10" d="   M23.99998,35.80508l1.00442-1.02176c0.84518-0.85977,1.99149-1.34278,3.18675-1.34278h6.62086   c1.7311,0,3.13443,0.65607,3.13443-1.10491V19.79641c0-1.76098-1.40333-3.18855-3.13443-3.18855h-7.6776   c-1.7311,0-3.13443,1.42756-3.13443,3.18855V35.80508z"/>
</g>
<g>
	<g>
		
			<path fill="#FFFFFF" stroke="#5D5D61FF" stroke-width="1" stroke-linecap="round" stroke-linejoin="round" stroke-miterlimit="10" d="    M36.73854,16.40507c0.32184,1.88924-0.31599,3.62934-1.50144,4.82357c-0.38696,0.38982-0.61039,0.91114-0.6104,1.46041    l-0.00001,1.81566c0,0.16303-0.03753,0.19363-0.08382,0.19363h-6.41694c-0.04629,0-0.08382-0.03753-0.08382-0.08382l0-1.93043    c0-0.54196-0.21541-1.05996-0.59841-1.44341c-0.98601-0.98717-1.59645-2.35056-1.59645-3.864    c0-3.42871,3.15008-6.12623,6.71221-5.35427C34.68773,12.48364,36.37283,14.25832,36.73854,16.40507z"/>
		
			<line fill="none" stroke="#5D5D61FF" stroke-width="1" stroke-linecap="round" stroke-linejoin="round" stroke-miterlimit="10" x1="31.3344" y1="24.69834" x2="31.3344" y2="19.245"/>
		
			<path fill="#FFFFFF" stroke="#5D5D61FF" stroke-width="1" stroke-linecap="round" stroke-linejoin="round" stroke-miterlimit="10" d="    M32.6311,28.9297h-2.60227c-1.10143,0-1.99432-0.89289-1.99432-1.99432v-2.23705h6.59091v2.23705    C34.62542,28.03682,33.73253,28.9297,32.6311,28.9297z"/>
	</g>
	
		<line fill="none" stroke="#5D5D61FF" stroke-width="1" stroke-linecap="round" stroke-linejoin="round" stroke-miterlimit="10" x1="30.29883" y1="18.29394" x2="31.3344" y2="19.25985"/>
	
		<line fill="none" stroke="#5D5D61FF" stroke-width="1" stroke-linecap="round" stroke-linejoin="round" stroke-miterlimit="10" x1="32.36998" y1="18.29394" x2="31.3344" y2="19.25985"/>
	<g>
		
			<line fill="none" stroke="#5D5D61FF" stroke-width="1" stroke-linecap="round" stroke-linejoin="round" stroke-miterlimit="10" x1="15.13083" y1="26.50475" x2="18.78199" y2="26.50475"/>
		
			<line fill="none" stroke="#5D5D61FF" stroke-width="1" stroke-linecap="round" stroke-linejoin="round" stroke-miterlimit="10" x1="15.13083" y1="22.89192" x2="18.78199" y2="22.89192"/>
	</g>
</g>
<g>
	
		<line fill="none" stroke="#5D5D61FF" stroke-width="1" stroke-linecap="round" stroke-linejoin="round" stroke-miterlimit="10" x1="31.42383" y1="6.85584" x2="31.42383" y2="8.37288"/>
	
		<line fill="none" stroke="#5D5D61FF" stroke-width="1" stroke-linecap="round" stroke-linejoin="round" stroke-miterlimit="10" x1="38.56987" y1="9.37739" x2="37.5" y2="10.46379"/>
	
		<line fill="none" stroke="#5D5D61FF" stroke-width="1" stroke-linecap="round" stroke-linejoin="round" stroke-miterlimit="10" x1="24.96507" y1="9.37739" x2="26.03494" y2="10.46379"/>
</g>
</svg>